<svg width="35" height="38" viewBox="0 0 35 38" fill="none" xmlns="http://www.w3.org/2000/svg">
<path d="M0.65 25.43L2.14 25.19V26.74H3.93V27.98H2.14V29.83C2.14 30.1433 2.19333 30.3933 2.3 30.58C2.41333 30.7667 2.63667 30.86 2.97 30.86C3.13 30.86 3.29333 30.8467 3.46 30.82C3.63333 30.7867 3.79 30.7433 3.93 30.69L4.14 31.85C3.96 31.9233 3.76 31.9867 3.54 32.04C3.32 32.0933 3.05 32.12 2.73 32.12C2.32333 32.12 1.98667 32.0667 1.72 31.96C1.45333 31.8467 1.24 31.6933 1.08 31.5C0.92 31.3 0.806667 31.06 0.74 30.78C0.68 30.5 0.65 30.19 0.65 29.85V25.43ZM8.31336 28.06C8.18003 28.0267 8.02336 27.9933 7.84336 27.96C7.66336 27.92 7.47003 27.9 7.26336 27.9C7.17003 27.9 7.05669 27.91 6.92336 27.93C6.79669 27.9433 6.70003 27.96 6.63336 27.98V32H5.14336V27.02C5.41003 26.9267 5.72336 26.84 6.08336 26.76C6.45003 26.6733 6.85669 26.63 7.30336 26.63C7.38336 26.63 7.48003 26.6367 7.59336 26.65C7.70669 26.6567 7.82003 26.67 7.93336 26.69C8.04669 26.7033 8.16003 26.7233 8.27336 26.75C8.38669 26.77 8.48336 26.7967 8.56336 26.83L8.31336 28.06ZM11.2745 30.96C11.4211 30.96 11.5611 30.9567 11.6945 30.95C11.8278 30.9433 11.9345 30.9333 12.0145 30.92V29.79C11.9545 29.7767 11.8645 29.7633 11.7445 29.75C11.6245 29.7367 11.5145 29.73 11.4145 29.73C11.2745 29.73 11.1411 29.74 11.0145 29.76C10.8945 29.7733 10.7878 29.8033 10.6945 29.85C10.6011 29.8967 10.5278 29.96 10.4745 30.04C10.4211 30.12 10.3945 30.22 10.3945 30.34C10.3945 30.5733 10.4711 30.7367 10.6245 30.83C10.7845 30.9167 11.0011 30.96 11.2745 30.96ZM11.1545 26.6C11.5945 26.6 11.9611 26.65 12.2545 26.75C12.5478 26.85 12.7811 26.9933 12.9545 27.18C13.1345 27.3667 13.2611 27.5933 13.3345 27.86C13.4078 28.1267 13.4445 28.4233 13.4445 28.75V31.85C13.2311 31.8967 12.9345 31.95 12.5545 32.01C12.1745 32.0767 11.7145 32.11 11.1745 32.11C10.8345 32.11 10.5245 32.08 10.2445 32.02C9.97112 31.96 9.73445 31.8633 9.53445 31.73C9.33445 31.59 9.18112 31.41 9.07445 31.19C8.96779 30.97 8.91445 30.7 8.91445 30.38C8.91445 30.0733 8.97445 29.8133 9.09445 29.6C9.22112 29.3867 9.38779 29.2167 9.59445 29.09C9.80112 28.9633 10.0378 28.8733 10.3045 28.82C10.5711 28.76 10.8478 28.73 11.1345 28.73C11.3278 28.73 11.4978 28.74 11.6445 28.76C11.7978 28.7733 11.9211 28.7933 12.0145 28.82V28.68C12.0145 28.4267 11.9378 28.2233 11.7845 28.07C11.6311 27.9167 11.3645 27.84 10.9845 27.84C10.7311 27.84 10.4811 27.86 10.2345 27.9C9.98779 27.9333 9.77445 27.9833 9.59445 28.05L9.40445 26.85C9.49112 26.8233 9.59779 26.7967 9.72445 26.77C9.85779 26.7367 10.0011 26.71 10.1545 26.69C10.3078 26.6633 10.4678 26.6433 10.6345 26.63C10.8078 26.61 10.9811 26.6 11.1545 26.6ZM14.7918 26.92C15.0451 26.8467 15.3718 26.78 15.7718 26.72C16.1718 26.6533 16.5918 26.62 17.0318 26.62C17.4785 26.62 17.8485 26.68 18.1418 26.8C18.4418 26.9133 18.6785 27.0767 18.8518 27.29C19.0251 27.5033 19.1485 27.7567 19.2218 28.05C19.2951 28.3433 19.3318 28.67 19.3318 29.03V32H17.8418V29.21C17.8418 28.73 17.7785 28.39 17.6518 28.19C17.5251 27.99 17.2885 27.89 16.9418 27.89C16.8351 27.89 16.7218 27.8967 16.6018 27.91C16.4818 27.9167 16.3751 27.9267 16.2818 27.94V32H14.7918V26.92ZM24.6305 27.74C24.5105 27.8733 24.3471 28.0533 24.1405 28.28C23.9405 28.5067 23.7238 28.7567 23.4905 29.03C23.2571 29.3033 23.0205 29.59 22.7805 29.89C22.5471 30.19 22.3338 30.48 22.1405 30.76H24.6805V32H20.3305V31.12C20.4705 30.88 20.6371 30.6233 20.8305 30.35C21.0305 30.07 21.2371 29.79 21.4505 29.51C21.6705 29.23 21.8871 28.96 22.1005 28.7C22.3138 28.4333 22.5105 28.1933 22.6905 27.98H20.4505V26.74H24.6305V27.74ZM27.1705 32H25.6805V26.74H27.1705V32ZM27.3105 25.22C27.3105 25.4933 27.2205 25.71 27.0405 25.87C26.8671 26.0233 26.6605 26.1 26.4205 26.1C26.1805 26.1 25.9705 26.0233 25.7905 25.87C25.6171 25.71 25.5305 25.4933 25.5305 25.22C25.5305 24.9467 25.6171 24.7333 25.7905 24.58C25.9705 24.42 26.1805 24.34 26.4205 24.34C26.6605 24.34 26.8671 24.42 27.0405 24.58C27.2205 24.7333 27.3105 24.9467 27.3105 25.22ZM28.5211 25.43L30.0111 25.19V26.74H31.8011V27.98H30.0111V29.83C30.0111 30.1433 30.0644 30.3933 30.1711 30.58C30.2844 30.7667 30.5078 30.86 30.8411 30.86C31.0011 30.86 31.1644 30.8467 31.3311 30.82C31.5044 30.7867 31.6611 30.7433 31.8011 30.69L32.0111 31.85C31.8311 31.9233 31.6311 31.9867 31.4111 32.04C31.1911 32.0933 30.9211 32.12 30.6011 32.12C30.1944 32.12 29.8578 32.0667 29.5911 31.96C29.3244 31.8467 29.1111 31.6933 28.9511 31.5C28.7911 31.3 28.6778 31.06 28.6111 30.78C28.5511 30.5 28.5211 30.19 28.5211 29.85V25.43Z" fill="#004751"/>
<path d="M17.8923 15.0937C17.8923 14.1055 17.072 13.2969 16.0694 13.2969C15.0212 13.2969 14.2465 14.1055 14.2465 15.0937C14.2465 16.127 15.0212 16.8906 16.0694 16.8906C17.072 16.8906 17.8923 16.127 17.8923 15.0937ZM26.2777 4.94141C26.2777 2.06641 23.0421 0 19.9431 0H12.1501C9.09676 0 5.86108 2.06641 5.86108 4.94141V15.2285C5.86108 17.4297 7.82072 19.2715 10.3728 19.9004L7.684 22.5508C7.50171 22.7305 7.63843 23 7.86629 23H10.0538C10.2361 23 10.3728 22.9551 10.4639 22.8652L13.1983 20.125H18.8949L21.6293 22.8652C21.7205 22.9551 21.8572 23 22.0395 23H24.227C24.4548 23 24.5916 22.7305 24.4093 22.5508L21.7205 19.9004C24.2725 19.2715 26.2777 17.4297 26.2777 15.2285V4.94141ZM8.04858 10.0625V6.46875H24.0902V10.0625H8.04858ZM8.13973 4.3125C8.64103 3.14453 10.3728 2.15625 12.1501 2.15625H19.9431C21.766 2.15625 23.4978 3.14453 23.9535 4.3125H8.13973ZM24.0902 15.2285C24.0902 16.8457 21.6749 17.9687 19.9431 17.9687H12.1501C10.3728 17.9687 8.04858 16.8457 8.04858 15.2285V12.2187H24.0902V15.2285Z" fill="#DDE84A"/>
</svg>
